<?xml version="1.0" encoding="utf-8"?>
<!-- Generator: Adobe Illustrator 23.0.1, SVG Export Plug-In . SVG Version: 6.00 Build 0)  -->
<svg version="1.1" xmlns="http://www.w3.org/2000/svg" xmlns:xlink="http://www.w3.org/1999/xlink" x="0px" y="0px"
	 viewBox="0 0 800 800" style="enable-background:new 0 0 800 800;" xml:space="preserve">
<style type="text/css">
	.st0{opacity:0.6;}
	.st1{opacity:0.8;fill:url(#SVGID_1_);}
	.st2{opacity:0;fill:#AFAFAF;}
	.st3{opacity:0.0244;fill:#AFAFAF;}
	.st4{opacity:0.0488;fill:#AFAFAF;}
	.st5{opacity:0.0732;fill:#AFAFAF;}
	.st6{opacity:0.0976;fill:#AFAFAF;}
	.st7{opacity:0.122;fill:#AFAFAF;}
	.st8{opacity:0.1463;fill:#AFAFAF;}
	.st9{opacity:0.1707;fill:#AFAFAF;}
	.st10{opacity:0.1951;fill:#AFAFAF;}
	.st11{opacity:0.2195;fill:#AFAFAF;}
	.st12{opacity:0.2439;fill:#AFAFAF;}
	.st13{opacity:0.2683;fill:#AFAFAF;}
	.st14{opacity:0.2927;fill:#AFAFAF;}
	.st15{opacity:0.3171;fill:#AFAFAF;}
	.st16{opacity:0.3415;fill:#AFAFAF;}
	.st17{opacity:0.3659;fill:#AFAFAF;}
	.st18{opacity:0.3902;fill:#AFAFAF;}
	.st19{opacity:0.4146;fill:#AFAFAF;}
	.st20{opacity:0.439;fill:#AFAFAF;}
	.st21{opacity:0.4634;fill:#AFAFAF;}
	.st22{opacity:0.4878;fill:#AFAFAF;}
	.st23{opacity:0.5122;fill:#AFAFAF;}
	.st24{opacity:0.5366;fill:#AFAFAF;}
	.st25{opacity:0.561;fill:#AFAFAF;}
	.st26{opacity:0.5854;fill:#AFAFAF;}
	.st27{opacity:0.6098;fill:#AFAFAF;}
	.st28{opacity:0.6341;fill:#AFAFAF;}
	.st29{opacity:0.6585;fill:#AFAFAF;}
	.st30{opacity:0.6829;fill:#AFAFAF;}
	.st31{opacity:0.7073;fill:#AFAFAF;}
	.st32{opacity:0.7317;fill:#AFAFAF;}
	.st33{opacity:0.7561;fill:#AFAFAF;}
	.st34{opacity:0.7805;fill:#AFAFAF;}
	.st35{opacity:0.8049;fill:#AFAFAF;}
	.st36{opacity:0.8293;fill:#AFAFAF;}
	.st37{opacity:0.8537;fill:#AFAFAF;}
	.st38{opacity:0.878;fill:#AFAFAF;}
	.st39{opacity:0.9024;fill:#AFAFAF;}
	.st40{opacity:0.9268;fill:#AFAFAF;}
	.st41{opacity:0.9512;fill:#AFAFAF;}
	.st42{opacity:0.9756;fill:#AFAFAF;}
	.st43{fill:#AFAFAF;}
	.st44{fill:#395196;}
	.st45{fill:#FFFFFF;}
</style>
<g id="BACKGROUND" class="st0">
	<linearGradient id="SVGID_1_" gradientUnits="userSpaceOnUse" x1="9.094947e-13" y1="9.094947e-13" x2="800" y2="800">
		<stop  offset="0" style="stop-color:#FFFFFF"/>
		<stop  offset="1" style="stop-color:#E5E5E5"/>
	</linearGradient>
	<rect class="st1" width="800" height="800"/>
</g>
<g id="OBJECTS">
	<g>
		<g>
			<path id="XMLID_3_" class="st2" d="M764.19,464.46c0-178.66-144.83-323.5-323.52-323.5c-178.68,0-323.52,144.83-323.52,323.5
				C117.15,643.12,261.99,788,440.67,788C619.36,788,764.19,643.12,764.19,464.46z"/>
			<path class="st3" d="M761.64,461.34c0-178.66-144.83-323.5-323.52-323.5c-178.68,0-323.52,144.83-323.52,323.5
				c0,178.67,144.84,323.54,323.52,323.54C616.81,784.88,761.64,640,761.64,461.34z"/>
			<path class="st4" d="M759.09,458.21c0-178.66-144.83-323.5-323.52-323.5c-178.68,0-323.52,144.83-323.52,323.5
				c0,178.67,144.84,323.54,323.52,323.54C614.26,781.76,759.09,636.88,759.09,458.21z"/>
			<path class="st5" d="M756.54,455.09c0-178.66-144.83-323.5-323.52-323.5c-178.68,0-323.52,144.83-323.52,323.5
				c0,178.67,144.84,323.54,323.52,323.54C611.71,778.64,756.54,633.76,756.54,455.09z"/>
			<path class="st6" d="M753.99,451.97c0-178.66-144.83-323.5-323.52-323.5c-178.68,0-323.52,144.83-323.52,323.5
				c0,178.67,144.84,323.54,323.52,323.54C609.16,775.52,753.99,630.64,753.99,451.97z"/>
			<path class="st7" d="M751.44,448.85c0-178.66-144.83-323.5-323.52-323.5c-178.68,0-323.52,144.83-323.52,323.5
				c0,178.67,144.84,323.54,323.52,323.54C606.61,772.4,751.44,627.52,751.44,448.85z"/>
			<path class="st8" d="M748.9,445.73c0-178.66-144.83-323.5-323.52-323.5c-178.68,0-323.52,144.83-323.52,323.5
				c0,178.67,144.84,323.54,323.52,323.54C604.06,769.27,748.9,624.4,748.9,445.73z"/>
			<path class="st9" d="M746.35,442.61c0-178.66-144.83-323.5-323.52-323.5c-178.68,0-323.52,144.83-323.52,323.5
				c0,178.67,144.84,323.54,323.52,323.54C601.51,766.15,746.35,621.28,746.35,442.61z"/>
			<path class="st10" d="M743.8,439.49c0-178.66-144.83-323.5-323.52-323.5c-178.68,0-323.52,144.83-323.52,323.5
				c0,178.67,144.84,323.54,323.52,323.54C598.96,763.03,743.8,618.15,743.8,439.49z"/>
			<path class="st11" d="M741.25,436.37c0-178.66-144.83-323.5-323.52-323.5c-178.68,0-323.52,144.83-323.52,323.5
				c0,178.67,144.84,323.54,323.52,323.54C596.41,759.91,741.25,615.03,741.25,436.37z"/>
			<path class="st12" d="M738.7,433.25c0-178.66-144.83-323.5-323.52-323.5c-178.68,0-323.52,144.83-323.52,323.5
				c0,178.67,144.84,323.54,323.52,323.54C593.86,756.79,738.7,611.91,738.7,433.25z"/>
			<path class="st13" d="M736.15,430.13c0-178.66-144.83-323.5-323.52-323.5c-178.68,0-323.52,144.83-323.52,323.5
				c0,178.67,144.84,323.54,323.52,323.54C591.31,753.67,736.15,608.79,736.15,430.13z"/>
			<path class="st14" d="M733.6,427c0-178.66-144.83-323.5-323.52-323.5c-178.68,0-323.52,144.83-323.52,323.5
				c0,178.67,144.84,323.54,323.52,323.54C588.76,750.55,733.6,605.67,733.6,427z"/>
			<path class="st15" d="M731.05,423.88c0-178.66-144.83-323.5-323.52-323.5C228.84,100.39,84,245.22,84,423.88
				c0,178.67,144.84,323.54,323.52,323.54C586.21,747.43,731.05,602.55,731.05,423.88z"/>
			<path class="st16" d="M728.5,420.76c0-178.66-144.83-323.5-323.52-323.5c-178.68,0-323.52,144.83-323.52,323.5
				c0,178.67,144.84,323.54,323.52,323.54C583.66,744.31,728.5,599.43,728.5,420.76z"/>
			<path class="st17" d="M725.95,417.64c0-178.66-144.83-323.5-323.52-323.5c-178.68,0-323.52,144.83-323.52,323.5
				c0,178.67,144.84,323.54,323.52,323.54C581.12,741.19,725.95,596.31,725.95,417.64z"/>
			<path class="st18" d="M723.4,414.52c0-178.66-144.83-323.5-323.52-323.5c-178.68,0-323.52,144.83-323.52,323.5
				c0,178.67,144.84,323.54,323.52,323.54C578.57,738.07,723.4,593.19,723.4,414.52z"/>
			<path class="st19" d="M720.85,411.4c0-178.66-144.83-323.5-323.52-323.5c-178.68,0-323.52,144.83-323.52,323.5
				c0,178.67,144.84,323.54,323.52,323.54C576.02,734.94,720.85,590.07,720.85,411.4z"/>
			<path class="st20" d="M718.3,408.28c0-178.66-144.83-323.5-323.52-323.5c-178.68,0-323.52,144.83-323.52,323.5
				c0,178.67,144.84,323.54,323.52,323.54C573.47,731.82,718.3,586.94,718.3,408.28z"/>
			<path class="st21" d="M715.75,405.16c0-178.66-144.83-323.5-323.52-323.5c-178.68,0-323.52,144.83-323.52,323.5
				c0,178.67,144.84,323.54,323.52,323.54C570.92,728.7,715.75,583.82,715.75,405.16z"/>
			<path class="st22" d="M713.2,402.04c0-178.66-144.83-323.5-323.52-323.5C211,78.54,66.16,223.37,66.16,402.04
				c0,178.67,144.84,323.54,323.52,323.54C568.37,725.58,713.2,580.7,713.2,402.04z"/>
			<path class="st23" d="M710.65,398.92c0-178.66-144.83-323.5-323.52-323.5c-178.68,0-323.52,144.83-323.52,323.5
				c0,178.67,144.84,323.54,323.52,323.54C565.82,722.46,710.65,577.58,710.65,398.92z"/>
			<path class="st24" d="M708.1,395.8c0-178.66-144.83-323.5-323.52-323.5C205.9,72.3,61.06,217.13,61.06,395.8
				c0,178.67,144.84,323.54,323.52,323.54C563.27,719.34,708.1,574.46,708.1,395.8z"/>
			<path class="st25" d="M705.55,392.67c0-178.66-144.83-323.5-323.52-323.5c-178.68,0-323.52,144.83-323.52,323.5
				c0,178.67,144.84,323.54,323.52,323.54C560.72,716.22,705.55,571.34,705.55,392.67z"/>
			<path class="st26" d="M703,389.55c0-178.66-144.83-323.5-323.52-323.5c-178.68,0-323.52,144.83-323.52,323.5
				c0,178.67,144.84,323.54,323.52,323.54C558.17,713.1,703,568.22,703,389.55z"/>
			<path class="st27" d="M700.45,386.43c0-178.66-144.83-323.5-323.52-323.5c-178.68,0-323.52,144.83-323.52,323.5
				c0,178.67,144.84,323.54,323.52,323.54C555.62,709.98,700.45,565.1,700.45,386.43z"/>
			<path class="st28" d="M697.91,383.31c0-178.66-144.83-323.5-323.52-323.5c-178.68,0-323.52,144.83-323.52,323.5
				c0,178.67,144.84,323.54,323.52,323.54C553.07,706.86,697.91,561.98,697.91,383.31z"/>
			<path class="st29" d="M695.36,380.19c0-178.66-144.83-323.5-323.52-323.5c-178.68,0-323.52,144.83-323.52,323.5
				c0,178.67,144.84,323.54,323.52,323.54C550.52,703.73,695.36,558.86,695.36,380.19z"/>
			<path class="st30" d="M692.81,377.07c0-178.66-144.83-323.5-323.52-323.5c-178.68,0-323.52,144.83-323.52,323.5
				c0,178.67,144.84,323.54,323.52,323.54C547.97,700.61,692.81,555.74,692.81,377.07z"/>
			<path class="st31" d="M690.26,373.95c0-178.66-144.83-323.5-323.52-323.5c-178.68,0-323.52,144.83-323.52,323.5
				c0,178.67,144.84,323.54,323.52,323.54C545.42,697.49,690.26,552.61,690.26,373.95z"/>
			<path class="st32" d="M687.71,370.83c0-178.66-144.83-323.5-323.52-323.5c-178.68,0-323.52,144.83-323.52,323.5
				c0,178.67,144.84,323.54,323.52,323.54C542.87,694.37,687.71,549.49,687.71,370.83z"/>
			<path class="st33" d="M685.16,367.71c0-178.66-144.83-323.5-323.52-323.5c-178.68,0-323.52,144.83-323.52,323.5
				c0,178.67,144.84,323.54,323.52,323.54C540.32,691.25,685.16,546.37,685.16,367.71z"/>
			<path class="st34" d="M682.61,364.59c0-178.66-144.83-323.5-323.52-323.5c-178.68,0-323.52,144.83-323.52,323.5
				c0,178.67,144.84,323.54,323.52,323.54C537.77,688.13,682.61,543.25,682.61,364.59z"/>
			<path class="st35" d="M680.06,361.47c0-178.66-144.83-323.5-323.52-323.5c-178.68,0-323.52,144.83-323.52,323.5
				c0,178.67,144.84,323.54,323.52,323.54C535.22,685.01,680.06,540.13,680.06,361.47z"/>
			<path class="st36" d="M677.51,358.34c0-178.66-144.83-323.5-323.52-323.5c-178.68,0-323.52,144.83-323.52,323.5
				c0,178.67,144.84,323.54,323.52,323.54C532.67,681.89,677.51,537.01,677.51,358.34z"/>
			<path class="st37" d="M674.96,355.22c0-178.66-144.83-323.5-323.52-323.5c-178.68,0-323.52,144.83-323.52,323.5
				c0,178.67,144.84,323.54,323.52,323.54C530.13,678.77,674.96,533.89,674.96,355.22z"/>
			<path class="st38" d="M672.41,352.1c0-178.66-144.83-323.5-323.52-323.5c-178.68,0-323.52,144.83-323.52,323.5
				c0,178.67,144.84,323.54,323.52,323.54C527.58,675.65,672.41,530.77,672.41,352.1z"/>
			<path class="st39" d="M669.86,348.98c0-178.66-144.83-323.5-323.52-323.5c-178.68,0-323.52,144.83-323.52,323.5
				c0,178.67,144.84,323.54,323.52,323.54C525.03,672.53,669.86,527.65,669.86,348.98z"/>
			<path class="st40" d="M667.31,345.86c0-178.66-144.83-323.5-323.52-323.5c-178.68,0-323.52,144.83-323.52,323.5
				c0,178.67,144.84,323.54,323.52,323.54C522.48,669.4,667.31,524.53,667.31,345.86z"/>
			<path class="st41" d="M664.76,342.74c0-178.66-144.83-323.5-323.52-323.5c-178.68,0-323.52,144.83-323.52,323.5
				c0,178.67,144.84,323.54,323.52,323.54C519.93,666.28,664.76,521.41,664.76,342.74z"/>
			<path class="st42" d="M662.21,339.62c0-178.66-144.83-323.5-323.52-323.5c-178.68,0-323.52,144.83-323.52,323.5
				c0,178.67,144.84,323.54,323.52,323.54C517.38,663.16,662.21,518.28,662.21,339.62z"/>
			<path id="XMLID_2_" class="st43" d="M659.66,336.5C659.66,157.83,514.83,13,336.14,13C157.46,13,12.62,157.83,12.62,336.5
				c0,178.67,144.84,323.54,323.52,323.54C514.83,660.04,659.66,515.16,659.66,336.5z"/>
		</g>
		<g>
			<path id="XMLID_21_" class="st44" d="M659.66,336.5C659.66,157.83,514.83,13,336.14,13C157.46,13,12.62,157.83,12.62,336.5
				c0,178.67,144.84,323.54,323.52,323.54C514.83,660.04,659.66,515.16,659.66,336.5z"/>
			<path id="XMLID_19_" class="st45" d="M364.64,259.89v-30.64c0-14.92,9.96-18.41,16.94-18.41c7,0,43.01,0,43.01,0V145.2
				l-59.22-0.26c-65.73,0-80.65,48.97-80.65,80.32v34.62h-38v76.66h38.33c0,86.86,0,191.6,0,191.6h76.64c0,0,0-105.81,0-191.6h56.88
				l7-76.66H364.64z"/>
		</g>
	</g>
</g>
</svg>
