<?xml version="1.0" encoding="utf-8"?>
<!-- Generator: Adobe Illustrator 23.0.1, SVG Export Plug-In . SVG Version: 6.00 Build 0)  -->
<svg version="1.1" xmlns="http://www.w3.org/2000/svg" xmlns:xlink="http://www.w3.org/1999/xlink" x="0px" y="0px"
	 viewBox="0 0 800 800" style="enable-background:new 0 0 800 800;" xml:space="preserve">
<style type="text/css">
	.st0{opacity:0.6;}
	.st1{opacity:0.8;fill:url(#SVGID_1_);}
	.st2{opacity:0;fill:#AFAFAF;}
	.st3{opacity:0.0244;fill:#AFAFAF;}
	.st4{opacity:0.0488;fill:#AFAFAF;}
	.st5{opacity:0.0732;fill:#AFAFAF;}
	.st6{opacity:0.0976;fill:#AFAFAF;}
	.st7{opacity:0.122;fill:#AFAFAF;}
	.st8{opacity:0.1463;fill:#AFAFAF;}
	.st9{opacity:0.1707;fill:#AFAFAF;}
	.st10{opacity:0.1951;fill:#AFAFAF;}
	.st11{opacity:0.2195;fill:#AFAFAF;}
	.st12{opacity:0.2439;fill:#AFAFAF;}
	.st13{opacity:0.2683;fill:#AFAFAF;}
	.st14{opacity:0.2927;fill:#AFAFAF;}
	.st15{opacity:0.3171;fill:#AFAFAF;}
	.st16{opacity:0.3415;fill:#AFAFAF;}
	.st17{opacity:0.3659;fill:#AFAFAF;}
	.st18{opacity:0.3902;fill:#AFAFAF;}
	.st19{opacity:0.4146;fill:#AFAFAF;}
	.st20{opacity:0.439;fill:#AFAFAF;}
	.st21{opacity:0.4634;fill:#AFAFAF;}
	.st22{opacity:0.4878;fill:#AFAFAF;}
	.st23{opacity:0.5122;fill:#AFAFAF;}
	.st24{opacity:0.5366;fill:#AFAFAF;}
	.st25{opacity:0.561;fill:#AFAFAF;}
	.st26{opacity:0.5854;fill:#AFAFAF;}
	.st27{opacity:0.6098;fill:#AFAFAF;}
	.st28{opacity:0.6341;fill:#AFAFAF;}
	.st29{opacity:0.6585;fill:#AFAFAF;}
	.st30{opacity:0.6829;fill:#AFAFAF;}
	.st31{opacity:0.7073;fill:#AFAFAF;}
	.st32{opacity:0.7317;fill:#AFAFAF;}
	.st33{opacity:0.7561;fill:#AFAFAF;}
	.st34{opacity:0.7805;fill:#AFAFAF;}
	.st35{opacity:0.8049;fill:#AFAFAF;}
	.st36{opacity:0.8293;fill:#AFAFAF;}
	.st37{opacity:0.8537;fill:#AFAFAF;}
	.st38{opacity:0.878;fill:#AFAFAF;}
	.st39{opacity:0.9024;fill:#AFAFAF;}
	.st40{opacity:0.9268;fill:#AFAFAF;}
	.st41{opacity:0.9512;fill:#AFAFAF;}
	.st42{opacity:0.9756;fill:#AFAFAF;}
	.st43{fill:#AFAFAF;}
	.st44{fill:url(#SVGID_2_);}
	.st45{fill:none;stroke:#FFFFFF;stroke-miterlimit:10;}
	.st46{fill:#FFFFFF;}
</style>
<g id="BACKGROUND" class="st0">
	<linearGradient id="SVGID_1_" gradientUnits="userSpaceOnUse" x1="9.094947e-13" y1="9.094947e-13" x2="800" y2="800">
		<stop  offset="0" style="stop-color:#FFFFFF"/>
		<stop  offset="1" style="stop-color:#E5E5E5"/>
	</linearGradient>
	<rect class="st1" width="800" height="800"/>
</g>
<g id="OBJECTS">
	<g>
		<g>
			<path class="st2" d="M461.21,139.82c-178.68,0-323.56,144.88-323.56,323.63C137.65,642.13,282.53,787,461.21,787
				c178.69,0,323.56-144.87,323.56-323.56C784.77,284.7,639.9,139.82,461.21,139.82z"/>
			<path class="st3" d="M458.66,136.7c-178.68,0-323.56,144.88-323.56,323.63c0,178.68,144.88,323.56,323.56,323.56
				c178.69,0,323.56-144.87,323.56-323.56C782.22,281.58,637.35,136.7,458.66,136.7z"/>
			<path class="st4" d="M456.11,133.58c-178.68,0-323.56,144.88-323.56,323.63c0,178.68,144.88,323.56,323.56,323.56
				c178.69,0,323.56-144.87,323.56-323.56C779.68,278.46,634.8,133.58,456.11,133.58z"/>
			<path class="st5" d="M453.57,130.46c-178.68,0-323.56,144.88-323.56,323.63c0,178.68,144.88,323.56,323.56,323.56
				c178.69,0,323.56-144.87,323.56-323.56C777.13,275.34,632.26,130.46,453.57,130.46z"/>
			<path class="st6" d="M451.02,127.35c-178.68,0-323.56,144.88-323.56,323.63c0,178.68,144.88,323.56,323.56,323.56
				c178.69,0,323.56-144.87,323.56-323.56C774.58,272.23,629.71,127.35,451.02,127.35z"/>
			<path class="st7" d="M448.47,124.23c-178.68,0-323.56,144.88-323.56,323.63c0,178.68,144.88,323.56,323.56,323.56
				c178.69,0,323.56-144.87,323.56-323.56C772.04,269.11,627.16,124.23,448.47,124.23z"/>
			<path class="st8" d="M445.93,121.11c-178.68,0-323.56,144.88-323.56,323.63c0,178.68,144.88,323.56,323.56,323.56
				c178.69,0,323.56-144.87,323.56-323.56C769.49,265.99,624.62,121.11,445.93,121.11z"/>
			<path class="st9" d="M443.38,117.99c-178.68,0-323.56,144.88-323.56,323.63c0,178.68,144.88,323.56,323.56,323.56
				c178.69,0,323.56-144.87,323.56-323.56C766.94,262.87,622.07,117.99,443.38,117.99z"/>
			<path class="st10" d="M440.83,114.88c-178.68,0-323.56,144.88-323.56,323.63c0,178.68,144.88,323.56,323.56,323.56
				c178.69,0,323.56-144.87,323.56-323.56C764.4,259.76,619.52,114.88,440.83,114.88z"/>
			<path class="st11" d="M438.29,111.76c-178.68,0-323.56,144.88-323.56,323.63c0,178.68,144.88,323.56,323.56,323.56
				c178.69,0,323.56-144.87,323.56-323.56C761.85,256.64,616.98,111.76,438.29,111.76z"/>
			<path class="st12" d="M435.74,108.64c-178.68,0-323.56,144.88-323.56,323.63c0,178.68,144.88,323.56,323.56,323.56
				c178.69,0,323.56-144.87,323.56-323.56C759.3,253.52,614.43,108.64,435.74,108.64z"/>
			<path class="st13" d="M433.19,105.52c-178.68,0-323.56,144.88-323.56,323.63c0,178.68,144.88,323.56,323.56,323.56
				c178.69,0,323.56-144.87,323.56-323.56C756.76,250.4,611.88,105.52,433.19,105.52z"/>
			<path class="st14" d="M430.65,102.41c-178.68,0-323.56,144.88-323.56,323.63c0,178.68,144.88,323.56,323.56,323.56
				c178.69,0,323.56-144.87,323.56-323.56C754.21,247.29,609.34,102.41,430.65,102.41z"/>
			<path class="st15" d="M428.1,99.29c-178.68,0-323.56,144.88-323.56,323.63c0,178.68,144.88,323.56,323.56,323.56
				c178.69,0,323.56-144.87,323.56-323.56C751.66,244.17,606.79,99.29,428.1,99.29z"/>
			<path class="st16" d="M425.55,96.17C246.88,96.17,102,241.05,102,419.8c0,178.68,144.88,323.56,323.56,323.56
				c178.69,0,323.56-144.87,323.56-323.56C749.12,241.05,604.24,96.17,425.55,96.17z"/>
			<path class="st17" d="M423.01,93.05c-178.68,0-323.56,144.88-323.56,323.63c0,178.68,144.88,323.56,323.56,323.56
				c178.69,0,323.56-144.87,323.56-323.56C746.57,237.93,601.7,93.05,423.01,93.05z"/>
			<path class="st18" d="M420.46,89.94C241.78,89.94,96.9,234.82,96.9,413.56c0,178.68,144.88,323.56,323.56,323.56
				c178.69,0,323.56-144.87,323.56-323.56C744.02,234.82,599.15,89.94,420.46,89.94z"/>
			<path class="st19" d="M417.91,86.82c-178.68,0-323.56,144.88-323.56,323.63C94.36,589.13,239.24,734,417.91,734
				c178.69,0,323.56-144.87,323.56-323.56C741.48,231.7,596.6,86.82,417.91,86.82z"/>
			<path class="st20" d="M415.37,83.7c-178.68,0-323.56,144.88-323.56,323.63c0,178.68,144.88,323.56,323.56,323.56
				c178.69,0,323.56-144.87,323.56-323.56C738.93,228.58,594.06,83.7,415.37,83.7z"/>
			<path class="st21" d="M412.82,80.58c-178.68,0-323.56,144.88-323.56,323.63c0,178.68,144.88,323.56,323.56,323.56
				c178.69,0,323.56-144.87,323.56-323.56C736.38,225.46,591.51,80.58,412.82,80.58z"/>
			<path class="st22" d="M410.27,77.47c-178.68,0-323.56,144.88-323.56,323.63c0,178.68,144.88,323.56,323.56,323.56
				c178.69,0,323.56-144.87,323.56-323.56C733.84,222.35,588.96,77.47,410.27,77.47z"/>
			<path class="st23" d="M407.73,74.35c-178.68,0-323.56,144.88-323.56,323.63c0,178.68,144.88,323.56,323.56,323.56
				c178.69,0,323.56-144.87,323.56-323.56C731.29,219.23,586.42,74.35,407.73,74.35z"/>
			<path class="st24" d="M405.18,71.23c-178.68,0-323.56,144.88-323.56,323.63c0,178.68,144.88,323.56,323.56,323.56
				c178.69,0,323.56-144.87,323.56-323.56C728.74,216.11,583.87,71.23,405.18,71.23z"/>
			<path class="st25" d="M402.63,68.11c-178.68,0-323.56,144.88-323.56,323.63c0,178.68,144.88,323.56,323.56,323.56
				c178.69,0,323.56-144.87,323.56-323.56C726.2,212.99,581.32,68.11,402.63,68.11z"/>
			<path class="st26" d="M400.09,65C221.41,65,76.53,209.88,76.53,388.63c0,178.68,144.88,323.56,323.56,323.56
				c178.69,0,323.56-144.87,323.56-323.56C723.65,209.88,578.78,65,400.09,65z"/>
			<path class="st27" d="M397.54,61.88c-178.68,0-323.56,144.88-323.56,323.63c0,178.68,144.88,323.56,323.56,323.56
				c178.69,0,323.56-144.87,323.56-323.56C721.1,206.76,576.23,61.88,397.54,61.88z"/>
			<path class="st28" d="M394.99,58.76c-178.68,0-323.56,144.88-323.56,323.63c0,178.68,144.88,323.56,323.56,323.56
				c178.69,0,323.56-144.87,323.56-323.56C718.56,203.64,573.68,58.76,394.99,58.76z"/>
			<path class="st29" d="M392.45,55.64c-178.68,0-323.56,144.88-323.56,323.63c0,178.68,144.88,323.56,323.56,323.56
				c178.69,0,323.56-144.87,323.56-323.56C716.01,200.52,571.14,55.64,392.45,55.64z"/>
			<path class="st30" d="M389.9,52.53c-178.68,0-323.56,144.88-323.56,323.63c0,178.68,144.88,323.56,323.56,323.56
				c178.69,0,323.56-144.87,323.56-323.56C713.46,197.41,568.59,52.53,389.9,52.53z"/>
			<path class="st31" d="M387.35,49.41C208.68,49.41,63.8,194.29,63.8,373.04c0,178.68,144.88,323.56,323.56,323.56
				c178.69,0,323.56-144.87,323.56-323.56C710.92,194.29,566.04,49.41,387.35,49.41z"/>
			<path class="st32" d="M384.81,46.29c-178.68,0-323.56,144.88-323.56,323.63c0,178.68,144.88,323.56,323.56,323.56
				c178.69,0,323.56-144.87,323.56-323.56C708.37,191.17,563.5,46.29,384.81,46.29z"/>
			<path class="st33" d="M382.26,43.17C203.58,43.17,58.7,188.05,58.7,366.8c0,178.68,144.88,323.56,323.56,323.56
				c178.69,0,323.56-144.87,323.56-323.56C705.82,188.05,560.95,43.17,382.26,43.17z"/>
			<path class="st34" d="M379.71,40.06c-178.68,0-323.56,144.88-323.56,323.63c0,178.68,144.88,323.56,323.56,323.56
				c178.69,0,323.56-144.87,323.56-323.56C703.28,184.94,558.4,40.06,379.71,40.06z"/>
			<path class="st35" d="M377.17,36.94c-178.68,0-323.56,144.88-323.56,323.63c0,178.68,144.88,323.56,323.56,323.56
				c178.69,0,323.56-144.87,323.56-323.56C700.73,181.82,555.86,36.94,377.17,36.94z"/>
			<path class="st36" d="M374.62,33.82c-178.68,0-323.56,144.88-323.56,323.63c0,178.68,144.88,323.56,323.56,323.56
				c178.69,0,323.56-144.87,323.56-323.56C698.18,178.7,553.31,33.82,374.62,33.82z"/>
			<path class="st37" d="M372.07,30.7C193.4,30.7,48.52,175.58,48.52,354.33c0,178.68,144.88,323.56,323.56,323.56
				c178.69,0,323.56-144.87,323.56-323.56C695.64,175.58,550.76,30.7,372.07,30.7z"/>
			<path class="st38" d="M369.53,27.59c-178.68,0-323.56,144.88-323.56,323.63c0,178.68,144.88,323.56,323.56,323.56
				c178.69,0,323.56-144.87,323.56-323.56C693.09,172.47,548.22,27.59,369.53,27.59z"/>
			<path class="st39" d="M366.98,24.47C188.3,24.47,43.42,169.35,43.42,348.1c0,178.68,144.88,323.56,323.56,323.56
				c178.69,0,323.56-144.87,323.56-323.56C690.54,169.35,545.67,24.47,366.98,24.47z"/>
			<path class="st40" d="M364.43,21.35c-178.68,0-323.56,144.88-323.56,323.63c0,178.68,144.88,323.56,323.56,323.56
				C543.12,668.54,688,523.66,688,344.98C688,166.23,543.12,21.35,364.43,21.35z"/>
			<path class="st41" d="M361.89,18.23c-178.68,0-323.56,144.88-323.56,323.63c0,178.68,144.88,323.56,323.56,323.56
				c178.69,0,323.56-144.87,323.56-323.56C685.45,163.11,540.58,18.23,361.89,18.23z"/>
			<path class="st42" d="M359.34,15.12C180.66,15.12,35.78,160,35.78,338.75c0,178.68,144.88,323.56,323.56,323.56
				c178.69,0,323.56-144.87,323.56-323.56C682.9,160,538.03,15.12,359.34,15.12z"/>
			<path class="st43" d="M356.79,12C178.12,12,33.24,156.88,33.24,335.63c0,178.68,144.88,323.56,323.56,323.56
				c178.69,0,323.56-144.87,323.56-323.56C680.36,156.88,535.48,12,356.79,12z"/>
		</g>
		<g>
			
				<linearGradient id="SVGID_2_" gradientUnits="userSpaceOnUse" x1="-380.0459" y1="-86.2378" x2="44.5286" y2="402.1794" gradientTransform="matrix(-1 0 0 -1 189.0371 493.5684)">
				<stop  offset="0" style="stop-color:#5D3FD2"/>
				<stop  offset="0.4244" style="stop-color:#B829A9"/>
				<stop  offset="0.5009" style="stop-color:#BE289D"/>
				<stop  offset="0.6383" style="stop-color:#D0257E"/>
				<stop  offset="0.7849" style="stop-color:#E62256"/>
				<stop  offset="0.8147" style="stop-color:#E83156"/>
				<stop  offset="0.8718" style="stop-color:#EE5755"/>
				<stop  offset="0.9495" style="stop-color:#F89554"/>
				<stop  offset="1" style="stop-color:#FFC153"/>
			</linearGradient>
			<path class="st44" d="M356.79,12C178.12,12,33.24,156.88,33.24,335.63c0,178.68,144.88,323.56,323.56,323.56
				c178.69,0,323.56-144.87,323.56-323.56C680.36,156.88,535.48,12,356.79,12z"/>
			<g>
				<path class="st45" d="M264.19,492.56L264.19,492.56L264.19,492.56L264.19,492.56z M449.4,164.58L449.4,164.58L449.4,164.58
					L449.4,164.58z"/>
				<g>
					<path class="st46" d="M356.79,451.13c63.72,0,115.55-51.81,115.55-115.5c0-63.73-51.84-115.58-115.55-115.58
						c-63.71,0-115.55,51.85-115.55,115.58C241.24,399.32,293.08,451.13,356.79,451.13z M269.27,335.63
						c0-48.3,39.26-87.59,87.52-87.59s87.53,39.29,87.53,87.59c0,48.26-39.26,87.53-87.53,87.53S269.27,383.89,269.27,335.63z"/>
				</g>
				<path class="st46" d="M472.04,527.53H241.56c-43.26,0-78.45-35.19-78.45-78.45V222.11c0-43.26,35.19-78.45,78.45-78.45h230.48
					c43.26,0,78.45,35.19,78.45,78.45v226.96C550.48,492.33,515.29,527.53,472.04,527.53z M241.56,172.29
					c-27.47,0-49.83,22.35-49.83,49.82v226.96c0,27.47,22.35,49.82,49.83,49.82h230.48c27.47,0,49.82-22.35,49.82-49.82V222.11
					c0-27.47-22.35-49.82-49.82-49.82H241.56z"/>
			</g>
			<path class="st46" d="M473.91,206.87c-10.1,0-18.24,8.23-18.24,18.26c0,10.1,8.14,18.22,18.24,18.22
				c10.03,0,18.26-8.12,18.26-18.22C492.17,215.1,483.95,206.87,473.91,206.87z"/>
		</g>
	</g>
</g>
</svg>
